<?xml version="1.0" encoding="UTF-8"?>
<svg xmlns="http://www.w3.org/2000/svg" xmlns:xlink="http://www.w3.org/1999/xlink" viewBox="0 0 20 20" width="20px" height="20px">
<g id="surface61023110">
<path style=" stroke:none;fill-rule:nonzero;fill:rgb(100%,100%,100%);fill-opacity:1;" d="M 7.65625 0.15625 C 7.398438 0.15625 7.1875 0.367188 7.1875 0.625 C 7.1875 0.882812 7.398438 1.09375 7.65625 1.09375 L 12.34375 1.09375 C 12.601562 1.09375 12.8125 0.882812 12.8125 0.625 C 12.8125 0.367188 12.601562 0.15625 12.34375 0.15625 Z M 3.75 2.34375 C 2.628906 2.34375 1.71875 3.253906 1.71875 4.375 C 1.71875 5.496094 2.628906 6.40625 3.75 6.40625 L 15.78125 6.40625 L 15.78125 16.25 C 15.78125 17.714844 14.589844 18.90625 13.125 18.90625 L 6.875 18.90625 C 5.410156 18.90625 4.21875 17.714844 4.21875 16.25 L 4.21875 8.125 C 4.21875 7.867188 4.007812 7.65625 3.75 7.65625 C 3.492188 7.65625 3.28125 7.867188 3.28125 8.125 L 3.28125 16.25 C 3.28125 18.230469 4.894531 19.84375 6.875 19.84375 L 13.125 19.84375 C 15.105469 19.84375 16.71875 18.230469 16.71875 16.25 L 16.71875 6.351562 C 17.613281 6.136719 18.28125 5.335938 18.28125 4.375 C 18.28125 3.253906 17.371094 2.34375 16.25 2.34375 Z M 3.75 3.28125 L 16.25 3.28125 C 16.851562 3.28125 17.34375 3.773438 17.34375 4.375 C 17.34375 4.976562 16.851562 5.46875 16.25 5.46875 L 3.75 5.46875 C 3.148438 5.46875 2.65625 4.976562 2.65625 4.375 C 2.65625 3.773438 3.148438 3.28125 3.75 3.28125 Z M 7.8125 8.59375 C 7.554688 8.59375 7.34375 8.804688 7.34375 9.0625 L 7.34375 16.25 C 7.34375 16.507812 7.554688 16.71875 7.8125 16.71875 C 8.070312 16.71875 8.28125 16.507812 8.28125 16.25 L 8.28125 9.0625 C 8.28125 8.804688 8.070312 8.59375 7.8125 8.59375 Z M 12.1875 8.59375 C 11.929688 8.59375 11.71875 8.804688 11.71875 9.0625 L 11.71875 16.25 C 11.71875 16.507812 11.929688 16.71875 12.1875 16.71875 C 12.445312 16.71875 12.65625 16.507812 12.65625 16.25 L 12.65625 9.0625 C 12.65625 8.804688 12.445312 8.59375 12.1875 8.59375 Z M 12.1875 8.59375 "/>
</g>
</svg>
